<svg xmlns="http://www.w3.org/2000/svg" width="32" height="32" viewBox="0 0 64 64" fill="none">
  <defs>
    <linearGradient id="g" x1="0" y1="0" x2="64" y2="64" gradientUnits="userSpaceOnUse">
      <stop stop-color="#4A6CF7"/>
      <stop offset="1" stop-color="#2563EB"/>
    </linearGradient>
  </defs>
  <rect width="64" height="64" rx="16" fill="url(#g)"/>
  <g stroke="#FFFFFF" stroke-width="9" stroke-linecap="round" stroke-linejoin="round" fill="none">
    <path d="M20 9 V49"/>
    <path d="M20 12 C31 12 39 15 39 25 C39 34 32 39 25 39"/>
    <path d="M34 38 L20 50"/>
    <path d="M39 9 V54"/>
    <path d="M39 14 C46 14 51 17 51 24 C51 31 46 35 40 35"/>
    <path d="M39 37 C46 37 51 40 51 47 C51 54 46 57 40 57"/>
  </g>
</svg>